<svg xmlns="http://www.w3.org/2000/svg" viewBox="0 0 48 48" id="transaction">
  <path fill="#ffff" d="M7,38h7.07v2H7a3,3,0,0,1-3-3V24.92H6V37A1,1,0,0,0,7,38Zm35-1a1,1,0,0,1-1,1H34.07v2H41a3,3,0,0,0,3-3V25.06H42ZM6,15H4V7A3,3,0,0,1,7,4H41a3,3,0,0,1,3,3v8.06H42V12H6ZM6,7v3H42V7a1,1,0,0,0-1-1H7A1,1,0,0,0,6,7Zm5,0H8V9h3Zm5,0H13V9h3ZM33,35a9,9,0,1,1-9-9A9,9,0,0,1,33,35Zm-2,0a7,7,0,1,0-7,7A7,7,0,0,0,31,35Zm-6-5H23v1H22a1,1,0,0,0-1,1v3a1,1,0,0,0,1,1h3v1H21v2h2v1h2V39h1a1,1,0,0,0,1-1V35a1,1,0,0,0-1-1H23V33h4V31H25Zm3-9V19H20v2ZM6.71,22.29,5.41,21H18V19H5.41l1.3-1.29L5.29,16.29l-3,3a1,1,0,0,0,0,1.42l3,3Zm39-3-3-3-1.42,1.42L42.59,19H30v2H42.59l-1.3,1.29,1.42,1.42,3-3A1,1,0,0,0,45.71,19.29Z"></path>
</svg>
